<svg width="105" height="128" viewBox="0 0 105 128" fill="none" xmlns="http://www.w3.org/2000/svg">
<path d="M81.1601 7.62939e-05H0.900601C0.900601 7.62939e-05 0.900602 29.4055 14.9114 29.4055H67.3222C67.3222 29.4055 74.2411 29.7515 74.2411 35.4595V90.9839C74.2411 90.9839 74.2411 97.7298 67.3222 97.7298H36.706C30.9979 97.7298 30.9979 88.5622 30.9979 88.5622C30.9979 88.5622 29.6141 78.7028 36.706 78.7028H55.906C66.1114 78.7028 66.1114 48.6055 66.1114 48.6055H26.5006C26.5006 48.6055 0.900599 46.5298 0.900599 72.1298V104.476C0.900599 104.476 -1.52103 128 26.5006 128H81.1601C104.511 128 104.511 103.265 104.511 103.265V25.2541C104.511 25.2541 104.511 7.62939e-05 81.1601 7.62939e-05Z" fill="white"/>
</svg>
